<svg width="150" height="134" viewBox="0 0 150 134" fill="none" xmlns="http://www.w3.org/2000/svg">
<g clip-path="url(#clip0_129_1402)">
<path d="M38.0729 15.0521H40.0129L40.4946 13.1728C42.0714 7.02111 47.5667 2.5 54.1667 2.5C61.9787 2.5 68.3333 8.85467 68.3333 16.6667V114.583C68.3333 123.567 61.0672 130.833 52.0833 130.833C44.9298 130.833 38.9194 126.18 36.7442 119.723L36.0558 117.679L33.9333 118.06C33.0019 118.227 32.118 118.333 31.25 118.333C22.2661 118.333 15 111.067 15 102.083C15 101.008 15.1119 99.9451 15.3181 98.8915L15.7109 96.8837L13.8205 96.1014C7.17088 93.3499 2.5 86.7927 2.5 79.1667C2.5 72.3812 6.21854 66.5145 11.741 63.3391L13.7547 62.1812L12.7476 60.088C11.5549 57.609 10.8333 54.9311 10.8333 52.0833C10.8333 44.4374 15.5238 37.8793 22.2263 35.1249L24.2151 34.3075L23.7045 32.2189C23.4636 31.233 23.3333 30.2083 23.3333 29.1667C23.3333 21.3788 29.6489 15.0392 37.4277 15.0002C37.4294 15.0004 37.4311 15.0007 37.4329 15.0009C37.4375 15.0016 37.4428 15.0023 37.4487 15.0032C37.5415 15.0167 37.7855 15.0521 38.0729 15.0521ZM137.261 60.0708L136.23 62.1723L138.259 63.3391C143.781 66.5145 147.5 72.3812 147.5 79.1667C147.5 86.7927 142.829 93.3499 136.18 96.1014L134.289 96.8837L134.682 98.8915C134.888 99.9451 135 101.008 135 102.083C135 111.067 127.734 118.333 118.75 118.333C117.882 118.333 116.998 118.227 116.067 118.06L113.944 117.679L113.256 119.723C111.081 126.18 105.07 130.833 97.9167 130.833C88.9328 130.833 81.6667 123.567 81.6667 114.583V16.6667C81.6667 8.83117 88.0188 2.5 95.8333 2.5C102.433 2.5 107.929 7.02111 109.505 13.1728L109.987 15.0521H111.927C112.089 15.0521 112.228 15.0406 112.328 15.03C112.422 15.0201 112.511 15.0073 112.545 15.0026C112.552 15.0017 112.558 15.0009 112.563 15.0001C120.346 15.0344 126.667 21.3758 126.667 29.1667C126.667 30.178 126.519 31.2114 126.283 32.2702L125.827 34.3248L127.774 35.1249C134.476 37.8793 139.167 44.4374 139.167 52.0833C139.167 54.9432 138.465 57.6157 137.261 60.0708Z" fill="#0181E9" stroke="#0181E9" stroke-width="5"/>
</g>
<defs>
<clipPath id="clip0_129_1402">
<rect width="150" height="133.333" fill="white"/>
</clipPath>
</defs>
</svg>
