<svg width="33.000000" height="33.000000" viewBox="0 0 33 33" fill="none" xmlns="http://www.w3.org/2000/svg" xmlns:xlink="http://www.w3.org/1999/xlink">
	<desc>
			Created with Pixso.
	</desc>
	<defs>
		<clipPath id="clip260_676">
			<rect id="stash:trash-can" rx="-0.687500" width="31.625000" height="31.625000" transform="translate(0.687500 0.687500)" fill="white" fill-opacity="0"/>
		</clipPath>
	</defs>
	<rect id="stash:trash-can" rx="-0.687500" width="31.625000" height="31.625000" transform="translate(0.687500 0.687500)" fill="#FFFFFF" fill-opacity="0"/>
	<g clip-path="url(#clip260_676)">
		<path id="Vector" d="M20.27 8.09C21.5 8.23 22.46 8.42 23.21 8.62C23.9 8.81 24.4 9 24.75 9.15C25.03 9.27 25.17 9.35 25.32 9.45C25.54 9.6 25.7 9.83 25.75 10.1C25.81 10.37 25.76 10.65 25.61 10.87C25.46 11.1 25.22 11.26 24.96 11.32C24.69 11.37 24.41 11.32 24.19 11.17C24.16 11.16 23.71 10.89 22.67 10.62C21.49 10.3 19.51 9.96 16.5 9.96C10.84 9.96 8.87 11.13 8.8 11.17C8.33 11.48 7.66 11.37 7.39 10.88C6.87 9.96 7.67 9.45 7.67 9.45C8.31 9.04 9.07 8.81 9.78 8.62C10.75 8.38 11.73 8.2 12.72 8.09C12.75 7.12 13.17 6.19 13.87 5.51C14.58 4.84 15.52 4.46 16.5 4.46C17.47 4.46 18.41 4.84 19.12 5.51C19.82 6.19 20.24 7.12 20.27 8.09ZM14.8 7.94C15.93 7.89 17.06 7.89 18.19 7.94C18.11 7.54 17.91 7.18 17.6 6.92C17.29 6.66 16.9 6.52 16.5 6.52C16.09 6.52 15.7 6.66 15.39 6.92C15.08 7.18 14.88 7.54 14.8 7.94ZM8.79 12.04C8.92 12.02 9.06 12.02 9.19 12.06C9.32 12.09 9.44 12.15 9.55 12.23C9.66 12.31 9.75 12.41 9.82 12.53C9.89 12.65 9.94 12.78 9.95 12.91L11.34 22.63C11.46 23.48 11.55 24.06 11.65 24.51C11.74 24.95 11.84 25.18 11.95 25.36C12.2 25.75 12.56 26.05 12.98 26.25C13.16 26.33 13.41 26.39 13.86 26.43C14.32 26.46 14.9 26.46 15.76 26.46L17.68 26.46C18.58 26.46 19.2 26.46 19.68 26.42C20.14 26.39 20.4 26.32 20.59 26.23C21.02 26.03 21.38 25.7 21.62 25.29C21.73 25.11 21.82 24.86 21.9 24.4C21.99 23.93 22.04 23.31 22.13 22.42L23.03 12.96C23.04 12.82 23.08 12.69 23.14 12.57C23.21 12.45 23.29 12.34 23.4 12.25C23.5 12.16 23.62 12.09 23.75 12.05C23.88 12.01 24.02 12 24.16 12.01C24.29 12.02 24.43 12.07 24.55 12.13C24.67 12.19 24.78 12.28 24.86 12.39C24.95 12.5 25.01 12.62 25.05 12.75C25.09 12.88 25.1 13.02 25.08 13.16L24.18 22.66C24.1 23.5 24.03 24.19 23.94 24.75C23.83 25.34 23.68 25.86 23.39 26.34C22.94 27.11 22.27 27.72 21.47 28.1C20.96 28.34 20.43 28.43 19.84 28.48C19.27 28.53 18.57 28.53 17.72 28.53L15.73 28.53C14.91 28.53 14.25 28.53 13.7 28.49C13.13 28.44 12.61 28.35 12.12 28.12C11.34 27.77 10.68 27.19 10.22 26.47C9.92 26.01 9.76 25.52 9.63 24.96C9.51 24.42 9.42 23.76 9.31 22.96L7.91 13.2C7.87 12.93 7.94 12.66 8.11 12.44C8.27 12.22 8.52 12.08 8.79 12.04Z" fill="#FFFFFF" fill-opacity="0.800000" fill-rule="nonzero"/>
	</g>
</svg>
