<svg width="32.000000" height="32.000000" viewBox="0 0 32 32" fill="none" xmlns="http://www.w3.org/2000/svg" xmlns:xlink="http://www.w3.org/1999/xlink">
	<desc>
			Created with Pixso.
	</desc>
	<defs>
		<clipPath id="clip260_662">
			<rect id="heroicons-outline:pencil-alt" rx="-0.666667" width="30.666666" height="30.666666" transform="translate(0.666667 0.666667)" fill="white" fill-opacity="0"/>
		</clipPath>
	</defs>
	<rect id="heroicons-outline:pencil-alt" rx="-0.666667" width="30.666666" height="30.666666" transform="translate(0.666667 0.666667)" fill="#FFFFFF" fill-opacity="0"/>
	<g clip-path="url(#clip260_662)">
		<path id="Vector" d="M14.66 6.66L8 6.66C7.29 6.66 6.61 6.94 6.11 7.44C5.61 7.94 5.33 8.62 5.33 9.33L5.33 23.99C5.33 24.7 5.61 25.38 6.11 25.88C6.61 26.38 7.29 26.66 8 26.66L22.66 26.66C23.37 26.66 24.05 26.38 24.55 25.88C25.05 25.38 25.33 24.7 25.33 23.99L25.33 17.33M24.31 4.18C24.63 4.04 24.98 3.96 25.34 3.96C25.69 3.96 26.04 4.02 26.37 4.16C26.7 4.29 27 4.49 27.25 4.74C27.5 4.99 27.7 5.29 27.83 5.62C27.96 5.94 28.03 6.3 28.03 6.65C28.02 7 27.95 7.35 27.81 7.68C27.67 8 27.47 8.3 27.21 8.54L15.77 19.99L12 19.99L12 16.22L23.44 4.77C23.69 4.52 23.98 4.32 24.31 4.18Z" stroke="#FFFFFF" stroke-opacity="0.800000" stroke-width="2.064516" stroke-linejoin="round" stroke-linecap="round"/>
	</g>
</svg>
