<svg width="100" height="89" viewBox="0 0 100 89" fill="none" xmlns="http://www.w3.org/2000/svg">
<g clip-path="url(#clip0_32_31)">
<path d="M36.1111 0C30.9201 0 26.6146 3.55903 25.3819 8.36806C25.2431 8.36806 25.1389 8.33333 25 8.33333C18.8715 8.33333 13.8889 13.316 13.8889 19.4444C13.8889 20.2778 13.9931 21.0938 14.184 21.875C9.11458 23.9583 5.55556 28.9236 5.55556 34.7222C5.55556 36.9097 6.11111 38.941 6.99653 40.7812C2.82986 43.1771 0 47.6215 0 52.7778C0 58.559 3.54167 63.5243 8.57639 65.6076C8.42014 66.4062 8.33333 67.2222 8.33333 68.0556C8.33333 74.9653 13.9236 80.5556 20.8333 80.5556C21.5451 80.5556 22.2396 80.4688 22.9167 80.3472C24.5833 85.2951 29.2014 88.8889 34.7222 88.8889C41.6319 88.8889 47.2222 83.2986 47.2222 76.3889V11.1111C47.2222 4.98264 42.2396 0 36.1111 0ZM100 52.7778C100 47.6215 97.1701 43.1771 93.0035 40.7812C93.9062 38.941 94.4444 36.9097 94.4444 34.7222C94.4444 28.9236 90.8854 23.9583 85.816 21.875C85.9896 21.0938 86.1111 20.2778 86.1111 19.4444C86.1111 13.316 81.1285 8.33333 75 8.33333C74.8611 8.33333 74.7396 8.36806 74.618 8.36806C73.3854 3.55903 69.0799 0 63.8889 0C57.7604 0 52.7778 4.96528 52.7778 11.1111V76.3889C52.7778 83.2986 58.3681 88.8889 65.2778 88.8889C70.7986 88.8889 75.4167 85.2951 77.0833 80.3472C77.7604 80.4688 78.4549 80.5556 79.1667 80.5556C86.0764 80.5556 91.6667 74.9653 91.6667 68.0556C91.6667 67.2222 91.5799 66.4062 91.4236 65.6076C96.4583 63.5243 100 58.559 100 52.7778Z" fill="#0181E9"/>
</g>
<defs>
<clipPath id="clip0_32_31">
<rect width="100" height="88.8889" fill="white"/>
</clipPath>
</defs>
</svg>
